<mxfile host="app.diagrams.net" modified="2023-10-17T20:01:41.392Z" agent="Mozilla/5.0 (Macintosh; Intel Mac OS X 10_15_7) AppleWebKit/537.36 (KHTML, like Gecko) Chrome/118.0.0.0 Safari/537.36" etag="rhYdEEkf5Cu26WsMCV3t" version="22.0.4" type="google">
  <diagram name="P치gina-1" id="RK1gvdu9JLNsESCLcNV6">
    <mxGraphModel grid="1" page="1" gridSize="10" guides="1" tooltips="1" connect="1" arrows="1" fold="1" pageScale="1" pageWidth="827" pageHeight="1169" math="0" shadow="0">
      <root>
        <mxCell id="0" />
        <mxCell id="1" parent="0" />
        <mxCell id="T3Q72iWT3lANaD__MmUQ-4" style="edgeStyle=orthogonalEdgeStyle;rounded=0;orthogonalLoop=1;jettySize=auto;html=1;exitX=0.5;exitY=1;exitDx=0;exitDy=0;entryX=0.5;entryY=0;entryDx=0;entryDy=0;" edge="1" parent="1" source="T3Q72iWT3lANaD__MmUQ-2" target="T3Q72iWT3lANaD__MmUQ-3">
          <mxGeometry relative="1" as="geometry" />
        </mxCell>
        <mxCell id="T3Q72iWT3lANaD__MmUQ-2" value="Bubble_sort(arreglo , tama침o_del_arreglo)" style="shape=process;whiteSpace=wrap;html=1;backgroundOutline=1;" vertex="1" parent="1">
          <mxGeometry x="230" y="90" width="180" height="60" as="geometry" />
        </mxCell>
        <mxCell id="T3Q72iWT3lANaD__MmUQ-23" style="edgeStyle=orthogonalEdgeStyle;rounded=0;orthogonalLoop=1;jettySize=auto;html=1;exitX=0.5;exitY=1;exitDx=0;exitDy=0;entryX=0.5;entryY=0;entryDx=0;entryDy=0;" edge="1" parent="1" source="T3Q72iWT3lANaD__MmUQ-3" target="T3Q72iWT3lANaD__MmUQ-6">
          <mxGeometry relative="1" as="geometry">
            <mxPoint x="320" y="260" as="targetPoint" />
          </mxGeometry>
        </mxCell>
        <mxCell id="T3Q72iWT3lANaD__MmUQ-3" value="int i = 0" style="shape=parallelogram;perimeter=parallelogramPerimeter;whiteSpace=wrap;html=1;fixedSize=1;" vertex="1" parent="1">
          <mxGeometry x="260" y="180" width="120" height="60" as="geometry" />
        </mxCell>
        <mxCell id="T3Q72iWT3lANaD__MmUQ-11" style="edgeStyle=orthogonalEdgeStyle;rounded=0;orthogonalLoop=1;jettySize=auto;html=1;exitX=0.5;exitY=1;exitDx=0;exitDy=0;entryX=0.5;entryY=0;entryDx=0;entryDy=0;" edge="1" parent="1" source="T3Q72iWT3lANaD__MmUQ-6" target="T3Q72iWT3lANaD__MmUQ-9">
          <mxGeometry relative="1" as="geometry" />
        </mxCell>
        <mxCell id="T3Q72iWT3lANaD__MmUQ-6" value="i &amp;lt; tama침o_del_arreglo -1" style="rhombus;whiteSpace=wrap;html=1;" vertex="1" parent="1">
          <mxGeometry x="260" y="270" width="120" height="110" as="geometry" />
        </mxCell>
        <mxCell id="T3Q72iWT3lANaD__MmUQ-31" style="edgeStyle=orthogonalEdgeStyle;rounded=0;orthogonalLoop=1;jettySize=auto;html=1;exitX=0.5;exitY=1;exitDx=0;exitDy=0;entryX=0.5;entryY=0;entryDx=0;entryDy=0;" edge="1" parent="1" source="T3Q72iWT3lANaD__MmUQ-9" target="T3Q72iWT3lANaD__MmUQ-27">
          <mxGeometry relative="1" as="geometry" />
        </mxCell>
        <mxCell id="T3Q72iWT3lANaD__MmUQ-9" value="int j= 0" style="shape=parallelogram;perimeter=parallelogramPerimeter;whiteSpace=wrap;html=1;fixedSize=1;" vertex="1" parent="1">
          <mxGeometry x="260" y="410" width="120" height="60" as="geometry" />
        </mxCell>
        <mxCell id="T3Q72iWT3lANaD__MmUQ-34" style="edgeStyle=orthogonalEdgeStyle;rounded=0;orthogonalLoop=1;jettySize=auto;html=1;exitX=0.5;exitY=1;exitDx=0;exitDy=0;entryX=0.5;entryY=0;entryDx=0;entryDy=0;" edge="1" parent="1" source="T3Q72iWT3lANaD__MmUQ-18" target="T3Q72iWT3lANaD__MmUQ-32">
          <mxGeometry relative="1" as="geometry" />
        </mxCell>
        <mxCell id="T3Q72iWT3lANaD__MmUQ-18" value="cambio de lugar&lt;br&gt;Swap(valor actual, valor siguiente)" style="rounded=0;whiteSpace=wrap;html=1;" vertex="1" parent="1">
          <mxGeometry x="260" y="770" width="120" height="60" as="geometry" />
        </mxCell>
        <mxCell id="T3Q72iWT3lANaD__MmUQ-30" style="edgeStyle=orthogonalEdgeStyle;rounded=0;orthogonalLoop=1;jettySize=auto;html=1;exitX=0.5;exitY=1;exitDx=0;exitDy=0;entryX=0.5;entryY=0;entryDx=0;entryDy=0;" edge="1" parent="1" source="T3Q72iWT3lANaD__MmUQ-27" target="T3Q72iWT3lANaD__MmUQ-28">
          <mxGeometry relative="1" as="geometry" />
        </mxCell>
        <mxCell id="T3Q72iWT3lANaD__MmUQ-38" style="edgeStyle=orthogonalEdgeStyle;rounded=0;orthogonalLoop=1;jettySize=auto;html=1;exitX=1;exitY=0.5;exitDx=0;exitDy=0;entryX=1;entryY=0.5;entryDx=0;entryDy=0;" edge="1" parent="1" source="T3Q72iWT3lANaD__MmUQ-27" target="T3Q72iWT3lANaD__MmUQ-33">
          <mxGeometry relative="1" as="geometry">
            <mxPoint x="460" y="980" as="targetPoint" />
            <Array as="points">
              <mxPoint x="461" y="545" />
              <mxPoint x="461" y="970" />
            </Array>
          </mxGeometry>
        </mxCell>
        <mxCell id="T3Q72iWT3lANaD__MmUQ-27" value="j&amp;nbsp; &amp;lt; tama침o_del_arreglo - el _indice _i - 1" style="rhombus;whiteSpace=wrap;html=1;" vertex="1" parent="1">
          <mxGeometry x="260" y="490" width="120" height="110" as="geometry" />
        </mxCell>
        <mxCell id="T3Q72iWT3lANaD__MmUQ-29" style="edgeStyle=orthogonalEdgeStyle;rounded=0;orthogonalLoop=1;jettySize=auto;html=1;exitX=0.5;exitY=1;exitDx=0;exitDy=0;entryX=0.5;entryY=0;entryDx=0;entryDy=0;" edge="1" parent="1" source="T3Q72iWT3lANaD__MmUQ-28" target="T3Q72iWT3lANaD__MmUQ-18">
          <mxGeometry relative="1" as="geometry" />
        </mxCell>
        <mxCell id="T3Q72iWT3lANaD__MmUQ-41" style="edgeStyle=orthogonalEdgeStyle;rounded=0;orthogonalLoop=1;jettySize=auto;html=1;entryX=1;entryY=0.5;entryDx=0;entryDy=0;" edge="1" parent="1" source="T3Q72iWT3lANaD__MmUQ-28" target="T3Q72iWT3lANaD__MmUQ-32">
          <mxGeometry relative="1" as="geometry">
            <mxPoint x="420" y="880" as="targetPoint" />
            <Array as="points">
              <mxPoint x="421" y="680" />
              <mxPoint x="421" y="880" />
            </Array>
          </mxGeometry>
        </mxCell>
        <mxCell id="T3Q72iWT3lANaD__MmUQ-28" value="valor en j &amp;gt; valor en j + 1" style="rhombus;whiteSpace=wrap;html=1;" vertex="1" parent="1">
          <mxGeometry x="260" y="630" width="120" height="100" as="geometry" />
        </mxCell>
        <mxCell id="T3Q72iWT3lANaD__MmUQ-35" style="edgeStyle=orthogonalEdgeStyle;rounded=0;orthogonalLoop=1;jettySize=auto;html=1;exitX=0.5;exitY=1;exitDx=0;exitDy=0;entryX=0.5;entryY=0;entryDx=0;entryDy=0;" edge="1" parent="1" source="T3Q72iWT3lANaD__MmUQ-32" target="T3Q72iWT3lANaD__MmUQ-33">
          <mxGeometry relative="1" as="geometry" />
        </mxCell>
        <mxCell id="T3Q72iWT3lANaD__MmUQ-36" style="edgeStyle=orthogonalEdgeStyle;rounded=0;orthogonalLoop=1;jettySize=auto;html=1;entryX=0;entryY=0.5;entryDx=0;entryDy=0;" edge="1" parent="1" source="T3Q72iWT3lANaD__MmUQ-32" target="T3Q72iWT3lANaD__MmUQ-28">
          <mxGeometry relative="1" as="geometry">
            <mxPoint x="180" y="680" as="targetPoint" />
            <Array as="points">
              <mxPoint x="181" y="880" />
              <mxPoint x="181" y="680" />
            </Array>
          </mxGeometry>
        </mxCell>
        <mxCell id="T3Q72iWT3lANaD__MmUQ-32" value="j ++" style="rounded=0;whiteSpace=wrap;html=1;" vertex="1" parent="1">
          <mxGeometry x="261" y="850" width="120" height="60" as="geometry" />
        </mxCell>
        <mxCell id="T3Q72iWT3lANaD__MmUQ-37" style="edgeStyle=orthogonalEdgeStyle;rounded=0;orthogonalLoop=1;jettySize=auto;html=1;exitX=0;exitY=0.5;exitDx=0;exitDy=0;entryX=0;entryY=0.5;entryDx=0;entryDy=0;" edge="1" parent="1" source="T3Q72iWT3lANaD__MmUQ-33" target="T3Q72iWT3lANaD__MmUQ-6">
          <mxGeometry relative="1" as="geometry">
            <mxPoint x="140" y="320" as="targetPoint" />
            <Array as="points">
              <mxPoint x="141" y="970" />
              <mxPoint x="141" y="325" />
            </Array>
          </mxGeometry>
        </mxCell>
        <mxCell id="T3Q72iWT3lANaD__MmUQ-33" value="i ++" style="rounded=0;whiteSpace=wrap;html=1;" vertex="1" parent="1">
          <mxGeometry x="260" y="940" width="120" height="60" as="geometry" />
        </mxCell>
        <mxCell id="T3Q72iWT3lANaD__MmUQ-47" style="edgeStyle=orthogonalEdgeStyle;rounded=0;orthogonalLoop=1;jettySize=auto;html=1;exitX=0.5;exitY=1;exitDx=0;exitDy=0;entryX=0.5;entryY=0;entryDx=0;entryDy=0;" edge="1" parent="1" source="T3Q72iWT3lANaD__MmUQ-42" target="T3Q72iWT3lANaD__MmUQ-45">
          <mxGeometry relative="1" as="geometry" />
        </mxCell>
        <mxCell id="T3Q72iWT3lANaD__MmUQ-42" value="Swap(valor_actual), valor_siguin" style="shape=process;whiteSpace=wrap;html=1;backgroundOutline=1;" vertex="1" parent="1">
          <mxGeometry x="530" y="200" width="180" height="60" as="geometry" />
        </mxCell>
        <mxCell id="T3Q72iWT3lANaD__MmUQ-48" style="edgeStyle=orthogonalEdgeStyle;rounded=0;orthogonalLoop=1;jettySize=auto;html=1;exitX=0.5;exitY=1;exitDx=0;exitDy=0;entryX=0.5;entryY=0;entryDx=0;entryDy=0;" edge="1" parent="1" source="T3Q72iWT3lANaD__MmUQ-45" target="T3Q72iWT3lANaD__MmUQ-46">
          <mxGeometry relative="1" as="geometry" />
        </mxCell>
        <mxCell id="T3Q72iWT3lANaD__MmUQ-45" value="temporal = valor actual&lt;br&gt;valor actual = valor&amp;nbsp; siguiente&lt;br&gt;valor siguiente = temporal" style="whiteSpace=wrap;html=1;aspect=fixed;" vertex="1" parent="1">
          <mxGeometry x="570" y="290" width="110" height="110" as="geometry" />
        </mxCell>
        <mxCell id="T3Q72iWT3lANaD__MmUQ-46" value="fin" style="ellipse;whiteSpace=wrap;html=1;" vertex="1" parent="1">
          <mxGeometry x="582.5" y="430" width="85" height="40" as="geometry" />
        </mxCell>
      </root>
    </mxGraphModel>
  </diagram>
</mxfile>
